<svg xmlns="http://www.w3.org/2000/svg" viewBox="0 0 200 200" width="200" height="200">
<circle cx="100.0" cy="100.0" r="15" fill="#F8C858"/>
<circle cx="130.0" cy="100.0" r="11" fill="#F8B040"/>
<circle cx="121.2" cy="121.2" r="11" fill="#F8B040"/>
<circle cx="100.0" cy="130.0" r="11" fill="#F8B040"/>
<circle cx="78.8" cy="121.2" r="11" fill="#F8B040"/>
<circle cx="70.0" cy="100.0" r="11" fill="#F8B040"/>
<circle cx="78.8" cy="78.8" r="11" fill="#F8B040"/>
<circle cx="100.0" cy="70.0" r="11" fill="#F8B040"/>
<circle cx="121.2" cy="78.8" r="11" fill="#F8B040"/>
<circle cx="130.6" cy="112.4" r="7" fill="#F8A838"/>
<circle cx="112.9" cy="130.4" r="7" fill="#F8A838"/>
<circle cx="87.6" cy="130.6" r="7" fill="#F8A838"/>
<circle cx="69.6" cy="112.9" r="7" fill="#F8A838"/>
<circle cx="69.4" cy="87.6" r="7" fill="#F8A838"/>
<circle cx="87.1" cy="69.6" r="7" fill="#F8A838"/>
<circle cx="112.4" cy="69.4" r="7" fill="#F8A838"/>
<circle cx="130.4" cy="87.1" r="7" fill="#F8A838"/>
<circle cx="152.0" cy="100.0" r="8" fill="#F0842E"/>
<circle cx="136.8" cy="136.8" r="8" fill="#F0842E"/>
<circle cx="100.0" cy="152.0" r="8" fill="#F0842E"/>
<circle cx="63.2" cy="136.8" r="8" fill="#F0842E"/>
<circle cx="48.0" cy="100.0" r="8" fill="#F0842E"/>
<circle cx="63.2" cy="63.2" r="8" fill="#F0842E"/>
<circle cx="100.0" cy="48.0" r="8" fill="#F0842E"/>
<circle cx="136.8" cy="63.2" r="8" fill="#F0842E"/>
<circle cx="151.0" cy="120.6" r="5" fill="#F07830"/>
<circle cx="121.5" cy="150.6" r="5" fill="#F07830"/>
<circle cx="79.4" cy="151.0" r="5" fill="#F07830"/>
<circle cx="49.4" cy="121.5" r="5" fill="#F07830"/>
<circle cx="49.0" cy="79.4" r="5" fill="#F07830"/>
<circle cx="78.5" cy="49.4" r="5" fill="#F07830"/>
<circle cx="120.6" cy="49.0" r="5" fill="#F07830"/>
<circle cx="150.6" cy="78.5" r="5" fill="#F07830"/>
<circle cx="172.0" cy="100.0" r="5" fill="#E8552B"/>
<circle cx="150.9" cy="150.9" r="5" fill="#E8552B"/>
<circle cx="100.0" cy="172.0" r="5" fill="#E8552B"/>
<circle cx="49.1" cy="150.9" r="5" fill="#E8552B"/>
<circle cx="28.0" cy="100.0" r="5" fill="#E8552B"/>
<circle cx="49.1" cy="49.1" r="5" fill="#E8552B"/>
<circle cx="100.0" cy="28.0" r="5" fill="#E8552B"/>
<circle cx="150.9" cy="49.1" r="5" fill="#E8552B"/>
<circle cx="168.6" cy="127.7" r="3.2" fill="#E8552B"/>
<circle cx="128.9" cy="168.1" r="3.2" fill="#E8552B"/>
<circle cx="72.3" cy="168.6" r="3.2" fill="#E8552B"/>
<circle cx="31.9" cy="128.9" r="3.2" fill="#E8552B"/>
<circle cx="31.4" cy="72.3" r="3.2" fill="#E8552B"/>
<circle cx="71.1" cy="31.9" r="3.2" fill="#E8552B"/>
<circle cx="127.7" cy="31.4" r="3.2" fill="#E8552B"/>
<circle cx="168.1" cy="71.1" r="3.2" fill="#E8552B"/>
</svg>